<svg width="36" height="36" viewBox="0 0 36 36" fill="none" xmlns="http://www.w3.org/2000/svg">
<g opacity="0.8">
<path d="M18 9C13.032 9 9 13.032 9 18C9 22.968 13.032 27 18 27C22.968 27 27 22.968 27 18C27 13.032 22.968 9 18 9ZM18 11.7C19.494 11.7 20.7 12.906 20.7 14.4C20.7 15.894 19.494 17.1 18 17.1C16.506 17.1 15.3 15.894 15.3 14.4C15.3 12.906 16.506 11.7 18 11.7ZM18 24.48C15.8611 24.48 13.9581 23.439 12.778 21.8363C12.6581 21.6735 12.5912 21.4708 12.6404 21.2747C13.0407 19.6791 16.3058 18.81 18 18.81C19.6858 18.81 22.9583 19.6791 23.3595 21.2748C23.4088 21.4708 23.3419 21.6735 23.222 21.8363C22.0419 23.439 20.1389 24.48 18 24.48Z" fill="black"/>
</g>
</svg>
