<svg width="200" height="50" viewBox="0 0 200 50" fill="none" xmlns="http://www.w3.org/2000/svg">
<g opacity="0.8">
<path d="M71.294 26.621C71.294 27.115 71.164 27.5397 70.904 27.895C70.644 28.2503 70.2973 28.5233 69.864 28.714C69.4393 28.9047 68.967 29 68.447 29H64.04V19.77H68.798C69.2313 19.77 69.604 19.887 69.916 20.121C70.228 20.3463 70.4707 20.641 70.644 21.005C70.8173 21.369 70.904 21.7417 70.904 22.123C70.904 22.5737 70.787 22.9983 70.553 23.397C70.3277 23.787 70.0027 24.0773 69.578 24.268C70.098 24.424 70.514 24.71 70.826 25.126C71.138 25.5333 71.294 26.0317 71.294 26.621ZM65.496 21.031V23.748H68.174C68.538 23.748 68.8413 23.6223 69.084 23.371C69.3267 23.111 69.448 22.786 69.448 22.396C69.448 21.9973 69.3353 21.6723 69.11 21.421C68.8847 21.161 68.5987 21.031 68.252 21.031H65.496ZM69.799 26.348C69.799 25.9667 69.6777 25.633 69.435 25.347C69.201 25.061 68.902 24.918 68.538 24.918H65.496V27.739H68.447C68.8283 27.739 69.149 27.6047 69.409 27.336C69.669 27.0587 69.799 26.7293 69.799 26.348ZM72.6305 21.083V19.51H74.0605V21.083H72.6305ZM72.6305 29V22.201H74.0605V29H72.6305ZM75.7919 19.51H77.2219V27.037C77.2219 27.3837 77.2739 27.6047 77.3779 27.7C77.4819 27.7953 77.6119 27.843 77.7679 27.843C77.9412 27.843 78.1059 27.8257 78.2619 27.791C78.4179 27.7563 78.5479 27.713 78.6519 27.661L78.8599 28.792C78.6519 28.8787 78.4049 28.9523 78.1189 29.013C77.8329 29.0737 77.5772 29.104 77.3519 29.104C76.8666 29.104 76.4852 28.9697 76.2079 28.701C75.9306 28.4237 75.7919 28.0423 75.7919 27.557V19.51ZM79.7021 19.51H81.1321V27.037C81.1321 27.3837 81.1841 27.6047 81.2881 27.7C81.3921 27.7953 81.5221 27.843 81.6781 27.843C81.8514 27.843 82.0161 27.8257 82.1721 27.791C82.3281 27.7563 82.4581 27.713 82.5621 27.661L82.7701 28.792C82.5621 28.8787 82.3151 28.9523 82.0291 29.013C81.7431 29.0737 81.4874 29.104 81.2621 29.104C80.7767 29.104 80.3954 28.9697 80.1181 28.701C79.8407 28.4237 79.7021 28.0423 79.7021 27.557V19.51ZM83.5992 21.083V19.51H85.0292V21.083H83.5992ZM83.5992 29V22.201H85.0292V29H83.5992ZM92.8446 29H91.4146V25.191C91.4146 24.5497 91.3106 24.086 91.1026 23.8C90.9033 23.5053 90.6043 23.358 90.2056 23.358C89.9283 23.358 89.651 23.4273 89.3736 23.566C89.105 23.7047 88.8623 23.8953 88.6456 24.138C88.429 24.3807 88.273 24.6537 88.1776 24.957V29H86.7476V22.201H88.0476V23.566C88.3076 23.1153 88.6846 22.7557 89.1786 22.487C89.6726 22.2183 90.2186 22.084 90.8166 22.084C91.354 22.084 91.77 22.214 92.0646 22.474C92.3593 22.7253 92.563 23.059 92.6756 23.475C92.7883 23.891 92.8446 24.3503 92.8446 24.853V29ZM97.1955 29.065C96.5802 29.065 96.0385 28.9047 95.5705 28.584C95.1112 28.2633 94.7472 27.843 94.4785 27.323C94.2185 26.7943 94.0885 26.2223 94.0885 25.607C94.0885 24.9657 94.2228 24.3763 94.4915 23.839C94.7602 23.3017 95.1285 22.877 95.5965 22.565C96.0732 22.2443 96.6235 22.084 97.2475 22.084C97.7935 22.084 98.2702 22.214 98.6775 22.474C99.0935 22.734 99.4358 23.072 99.7045 23.488V22.201H100.965V28.805C100.965 29.4637 100.805 30.0227 100.484 30.482C100.172 30.9413 99.7435 31.2923 99.1975 31.535C98.6515 31.7777 98.0362 31.899 97.3515 31.899C96.5975 31.899 95.9692 31.769 95.4665 31.509C94.9725 31.249 94.5565 30.8937 94.2185 30.443L95.0245 29.689C95.2845 30.053 95.6182 30.3303 96.0255 30.521C96.4415 30.7117 96.8835 30.807 97.3515 30.807C97.7415 30.807 98.1012 30.7333 98.4305 30.586C98.7685 30.4473 99.0372 30.2307 99.2365 29.936C99.4358 29.6413 99.5355 29.2643 99.5355 28.805V27.765C99.2928 28.1723 98.9592 28.493 98.5345 28.727C98.1098 28.9523 97.6635 29.065 97.1955 29.065ZM97.6635 27.908C97.9495 27.908 98.2225 27.8473 98.4825 27.726C98.7425 27.596 98.9635 27.427 99.1455 27.219C99.3362 27.011 99.4662 26.79 99.5355 26.556V24.775C99.3622 24.3417 99.0892 23.9907 98.7165 23.722C98.3525 23.4447 97.9668 23.306 97.5595 23.306C97.1435 23.306 96.7838 23.4187 96.4805 23.644C96.1858 23.8693 95.9562 24.164 95.7915 24.528C95.6268 24.8833 95.5445 25.256 95.5445 25.646C95.5445 26.062 95.6355 26.4433 95.8175 26.79C96.0082 27.128 96.2638 27.401 96.5845 27.609C96.9052 27.8083 97.2648 27.908 97.6635 27.908Z" fill="#2D3134"/>
<path d="M33.518 24.1897C33.8749 24.3681 34.3031 24.2252 34.4815 23.8684C34.6599 23.5116 34.5171 23.0833 34.1602 22.9049L29.8783 20.764C29.5215 20.5856 29.0932 20.7284 28.9148 21.0852C28.7364 21.4421 28.8793 21.8703 29.2361 22.0487L33.518 24.1897Z" fill="#2D3134"/>
<path d="M38.7634 21.7275C38.585 22.0843 38.1568 22.2272 37.7999 22.0487L33.518 19.9078C33.1612 19.7294 33.0183 19.3011 33.1967 18.9443C33.3752 18.5875 33.8034 18.4446 34.1602 18.623L38.4421 20.764C38.799 20.9424 38.9418 21.3706 38.7634 21.7275Z" fill="#2D3134"/>
<path fill-rule="evenodd" clip-rule="evenodd" d="M45.6145 24.2611C45.6145 23.9764 45.5438 23.7074 45.4131 23.4726C45.2657 23.207 45.042 22.9854 44.758 22.8338L44.0088 22.477L44.758 22.1202C45.2933 21.8344 45.6145 21.2992 45.6145 20.6929C45.6145 20.0862 45.2933 19.551 44.758 19.2656L36.9434 15.376C35.9088 14.8408 34.624 14.8408 33.5895 15.376L22.9561 20.6929C22.4209 20.9783 22.0996 21.5135 22.0996 22.1202C22.0996 22.7265 22.4209 23.2617 22.9561 23.5475L23.7053 23.9043L22.9561 24.2611C22.4209 24.5465 22.0996 25.0818 22.0996 25.6884C22.0996 26.2948 22.4209 26.83 22.9561 27.1157L23.7053 27.4726L22.9561 27.8294C22.4209 28.1148 22.0996 28.65 22.0996 29.2567C22.0996 29.863 22.4209 30.3983 22.9561 30.684L30.7704 34.5732C31.8053 35.1084 33.0898 35.1084 34.1247 34.5732L44.7225 29.2567C45.0152 29.1002 45.2438 28.8695 45.3908 28.5932C45.5128 28.3643 45.5787 28.104 45.5787 27.8294C45.5787 27.2227 45.2577 26.6875 44.7225 26.4021L43.9729 26.0453L44.7225 25.6884C45.2933 25.4027 45.6145 24.8675 45.6145 24.2611ZM23.5625 22.2627C23.5234 22.2366 23.4987 22.201 23.4882 22.163C23.4698 22.0968 23.4945 22.0226 23.5625 21.9773L34.2317 16.6605C34.8739 16.3395 35.659 16.3395 36.3012 16.6605L44.0799 20.55C44.1872 20.6214 44.1872 20.764 44.0799 20.8354L33.4466 26.1522C32.8044 26.4732 32.0193 26.4732 31.3771 26.1522L23.5625 22.2627ZM44.1158 27.9719L33.4466 33.2887C32.8044 33.6097 32.0193 33.6097 31.3771 33.2887L23.5625 29.3992C23.5036 29.3598 23.4771 29.2992 23.483 29.2407C23.4879 29.1926 23.5144 29.1459 23.5625 29.1138L25.2755 28.2573L30.7349 31.0049C31.7694 31.5402 33.0542 31.5402 34.0888 31.0049L42.4031 26.83L44.1158 27.6865C44.2228 27.758 44.2228 27.9005 44.1158 27.9719ZM44.1158 24.4037L33.4466 29.7205C33.2494 29.8191 33.0389 29.8874 32.8232 29.9254C32.4214 29.9961 32.0019 29.962 31.6175 29.8233C31.5356 29.7937 31.4551 29.7595 31.3771 29.7205L23.5625 25.831C23.5109 25.7965 23.4841 25.7452 23.4823 25.6937C23.4806 25.6383 23.507 25.5825 23.5625 25.5456L25.2755 24.689L30.7349 27.4367C31.7694 27.9719 33.0542 27.9719 34.0888 27.4367L42.4031 23.2617L44.1158 24.1183C44.2228 24.1897 44.2228 24.3322 44.1158 24.4037Z" fill="#2D3134"/>
</g>
</svg>
