<svg width="36" height="36" viewBox="0 0 36 36" fill="none" xmlns="http://www.w3.org/2000/svg">
<path fill-rule="evenodd" clip-rule="evenodd" d="M10.8748 9H12.6248C13.177 9 13.6248 9.44772 13.6248 10V22.375C13.6248 22.9273 13.177 23.375 12.6248 23.375H10.8748C10.3225 23.375 9.87476 22.9273 9.87476 22.375V10C9.87476 9.44772 10.3225 9 10.8748 9ZM8 25.2507H28V26.5007H8V25.2507ZM18.8745 11.5002H17.1245C16.5722 11.5002 16.1245 11.948 16.1245 12.5002V22.3752C16.1245 22.9275 16.5722 23.3752 17.1245 23.3752H18.8745C19.4268 23.3752 19.8745 22.9275 19.8745 22.3752V12.5002C19.8745 11.948 19.4268 11.5002 18.8745 11.5002ZM23.3743 14.0005H25.1243C25.6766 14.0005 26.1243 14.4482 26.1243 15.0005V22.3755C26.1243 22.9278 25.6766 23.3755 25.1243 23.3755H23.3743C22.822 23.3755 22.3743 22.9278 22.3743 22.3755V15.0005C22.3743 14.4482 22.822 14.0005 23.3743 14.0005Z" fill="#2D3134"/>
</svg>
