<svg width="36" height="36" viewBox="0 0 36 36" fill="none" xmlns="http://www.w3.org/2000/svg">
<path fill-rule="evenodd" clip-rule="evenodd" d="M20.5178 25.1383C20.3097 24.618 19.8899 24.1997 19.3705 23.9794C19.0093 23.829 18.6404 23.8112 18.2561 23.8112C18.1684 23.8112 18.0807 23.8109 17.993 23.8106L17.9871 23.8106C17.8651 23.8102 17.743 23.8099 17.6209 23.8102C17.5637 23.8103 17.5064 23.8107 17.4492 23.8112C16.8831 23.8137 16.3195 24.0355 15.925 24.4485C15.4485 24.9482 15.2666 25.6059 15.3716 26.2789C15.4639 26.8703 15.866 27.4107 16.3835 27.709C16.9304 28.0215 17.5771 28.0078 18.1987 27.9946C18.3168 27.9921 18.4341 27.9897 18.5495 27.9894L18.5661 27.9894L18.5952 27.9888C19.2849 27.9699 19.886 27.635 20.2902 27.0844C20.3856 26.9549 20.4627 26.8127 20.5215 26.6628H22.9943C23.2914 26.6628 23.5911 26.6475 23.8755 26.5532C24.4698 26.3569 24.9975 25.949 25.2921 25.3933C25.4843 25.0262 25.5842 24.631 25.5867 24.2181V22.6489C25.6832 22.6505 25.78 22.6489 25.8756 22.6472C25.9432 22.6461 26.0101 22.6449 26.0761 22.6449H27.3936C27.4077 22.6454 27.422 22.6454 27.4364 22.6449C27.4613 22.6449 27.4859 22.6436 27.5105 22.641C28.2605 22.5828 28.8275 21.9803 28.8325 21.2225V16.3687L28.8327 16.2915L28.8331 16.2259C28.8336 16.1307 28.8342 16.0356 28.8325 15.9404C28.8171 15.1603 28.1998 14.5485 27.4159 14.5434C26.9961 14.54 26.5753 14.5411 26.1548 14.5423H26.1533C26.0552 14.5425 25.9568 14.5428 25.8588 14.543L25.5227 14.5434C25.519 14.5434 25.5153 14.5434 25.5116 14.5434C25.4871 14.3429 25.4549 14.1424 25.4125 13.942C24.9899 11.9536 23.7013 10.1946 21.9773 9.12391C20.2071 8.02518 17.9912 7.71417 15.9828 8.26991C14.0179 8.8129 12.3016 10.1691 11.3332 11.9561C10.8936 12.7651 10.6121 13.6367 10.4855 14.543C10.0764 14.5401 9.66731 14.5412 9.25894 14.5423H9.25772C9.11284 14.5427 8.96743 14.543 8.82278 14.5433L8.62221 14.5434C7.82552 14.5434 7.18765 15.1348 7.16715 15.9353C7.16545 16.0187 7.16601 16.1032 7.16659 16.1873V16.1882C7.16687 16.2298 7.16715 16.2713 7.16715 16.3126V21.2021C7.16972 21.8496 7.58983 22.4767 8.25589 22.6067C8.49371 22.654 8.7423 22.6495 8.98737 22.645C9.05906 22.6437 9.13044 22.6424 9.20116 22.6424H10.4761L10.4928 22.6437L10.5042 22.6444C10.5182 22.6451 10.5324 22.6454 10.5467 22.6452L10.5614 22.6449C11.3479 22.622 11.9525 22.0051 11.9576 21.2225V16.3687C11.9576 16.2259 11.9601 16.0832 11.9576 15.9404C11.9567 15.9019 11.9544 15.864 11.9506 15.8264C11.9506 15.4597 11.9575 15.0975 12.001 14.7335C12.0797 14.2253 12.2165 13.729 12.4066 13.251C12.532 12.9668 12.6748 12.6895 12.837 12.4252C12.9292 12.2773 13.024 12.132 13.1264 11.9893C13.1381 11.9739 13.1497 11.9578 13.1613 11.9418C13.1655 11.936 13.1697 11.9302 13.1738 11.9245C13.1899 11.9049 13.2138 11.8751 13.2273 11.8569C13.264 11.8116 13.3009 11.7661 13.3391 11.7216C13.5568 11.4641 13.7925 11.2245 14.0461 11.0027C14.1102 10.9466 14.1742 10.8931 14.2382 10.8396C14.2569 10.8241 14.2755 10.8096 14.2942 10.7948C14.2985 10.7917 14.3038 10.788 14.31 10.7835C14.4509 10.679 14.5943 10.5795 14.7403 10.4878C15.0424 10.2961 15.3598 10.1286 15.6865 9.98727C16.1658 9.79696 16.6635 9.66277 17.173 9.58482C17.7209 9.51928 18.2729 9.51922 18.8209 9.58465C19.3312 9.66294 19.8298 9.79906 20.3098 9.98814C20.5953 10.1129 20.874 10.255 21.1396 10.4164C21.2881 10.5082 21.4342 10.6025 21.5776 10.7044C21.593 10.7159 21.609 10.7274 21.625 10.7389C21.6309 10.7431 21.6369 10.7474 21.6428 10.7516C21.6624 10.7675 21.6922 10.7912 21.7104 10.8047C21.756 10.8412 21.8018 10.878 21.8466 10.916C22.1053 11.1327 22.3461 11.3673 22.569 11.6196C22.6254 11.6834 22.6792 11.7471 22.733 11.8108C22.7485 11.8294 22.7631 11.848 22.7779 11.8665C22.781 11.8709 22.7848 11.876 22.7893 11.8822C22.8944 12.0224 22.9943 12.1652 23.0865 12.3105C23.2791 12.611 23.4474 12.9269 23.5894 13.252C23.7805 13.7284 23.9152 14.2232 23.9936 14.7296C24.0452 15.164 24.0449 15.5985 24.0446 16.0349L24.0446 23.1627C24.0446 23.5221 24.0471 23.8816 24.0446 24.241C24.0446 24.2851 24.0428 24.3283 24.0397 24.3711C24.0249 24.4419 24.0058 24.5117 23.9819 24.5806C23.9504 24.6453 23.9155 24.709 23.8755 24.7687C23.87 24.7764 23.8645 24.784 23.859 24.7919C23.8338 24.8199 23.8099 24.8492 23.7833 24.8758C23.7556 24.9033 23.7237 24.9309 23.6933 24.9585C23.6926 24.959 23.6918 24.9594 23.6911 24.9599C23.6269 25.0037 23.5601 25.0409 23.4917 25.0744C23.4175 25.0997 23.3416 25.1205 23.2646 25.136C23.0133 25.1579 22.7553 25.1512 22.4998 25.1446C22.3776 25.1415 22.2561 25.1383 22.1361 25.1383H20.5178ZM21.659 10.7634C21.6635 10.7667 21.668 10.77 21.6724 10.7733C21.6766 10.7766 21.6831 10.7808 21.6901 10.7854C21.7044 10.7947 21.721 10.8055 21.7262 10.8141C21.728 10.817 21.7212 10.8126 21.7104 10.8047C21.6933 10.7909 21.676 10.7771 21.659 10.7634ZM21.659 10.7634C21.6537 10.7595 21.6482 10.7556 21.6428 10.7516C21.6232 10.7357 21.6138 10.7275 21.6365 10.7452C21.644 10.7513 21.6515 10.7573 21.659 10.7634ZM13.1857 11.9083C13.189 11.9038 13.1923 11.8993 13.1956 11.8949C13.199 11.8908 13.2032 11.8843 13.2078 11.8774C13.2171 11.8631 13.228 11.8465 13.2366 11.8414C13.2395 11.8397 13.2352 11.8463 13.2273 11.8569C13.2134 11.8741 13.1995 11.8913 13.1857 11.9083ZM13.1857 11.9083C13.1817 11.9136 13.1778 11.919 13.1738 11.9245C13.1578 11.944 13.1496 11.9533 13.1674 11.9306C13.1735 11.9232 13.1796 11.9158 13.1857 11.9083Z" fill="#2D3134"/>
</svg>
