<svg width="100" height="18" viewBox="0 0 100 18" fill="none" xmlns="http://www.w3.org/2000/svg">
<path d="M97.0748 16.8724H99.8575V0.456932H97.0748V16.8724ZM0.599899 16.8724H3.38265V11.9384C3.38265 9.24922 4.85583 7.96306 6.93709 7.96306C9.06474 7.96306 9.95367 8.92177 9.95367 11.0733V16.8724H12.7596V10.2547C12.7596 6.91094 10.9358 4.80627 7.91921 4.80627C6.04837 4.80627 4.43476 5.60137 3.31243 7.09774V5.18031H0.599899V16.8724ZM13.6704 13.2245C13.6704 15.6798 15.8921 17.2466 18.6513 17.2466C20.8027 17.2466 22.7902 16.3579 23.6555 15.0249V16.8724H26.4382V9.99751C26.4382 5.95222 24.4742 4.80627 20.5453 4.80627C16.243 4.80627 14.1383 6.27945 14.1383 9.27262H16.9208C16.9208 8.15008 17.7862 7.56561 20.4285 7.56561C22.7902 7.56561 23.6555 8.10348 23.6555 9.24922L18.4642 9.9039C15.4713 10.2782 13.7641 10.8158 13.6704 13.2245ZM23.6555 12.3126C22.9072 13.5517 21.06 14.6041 18.8151 14.6041C17.5057 14.6041 16.7806 14.183 16.7806 13.4115C16.7806 12.8503 17.2483 12.4994 18.1602 12.336L23.6555 11.4941V12.3126ZM28.2146 16.8724H30.9971V11.9384C30.9971 9.24922 32.4703 7.96306 34.5516 7.96306C36.6794 7.96306 37.5682 8.92177 37.5682 11.0733V16.8724H40.3741V10.2547C40.3741 6.91094 38.5503 4.80627 35.5337 4.80627C33.6629 4.80627 32.0493 5.60137 30.9269 7.09774V5.18031H28.2146V16.8724ZM41.2383 11.0262C41.2383 14.4637 43.9743 17.2466 47.9262 17.2466C51.8547 17.3168 54.7074 14.4171 54.6372 11.0262C54.7074 7.63583 51.8547 4.73605 47.9262 4.80627C43.9743 4.80627 41.2383 7.5888 41.2383 11.0262ZM51.8079 11.0262C51.8079 12.9905 50.2413 14.0898 47.9262 14.0898C45.6113 14.0898 44.0679 12.9905 44.0679 11.0262C44.0679 9.06199 45.6113 7.96306 47.9262 7.96306C50.2413 7.96306 51.8079 9.06199 51.8079 11.0262ZM54.9402 11.0262C54.9402 14.6041 57.3721 17.2466 60.6693 17.2466C62.7971 17.2466 64.2703 16.5215 65.1122 15.0483V16.8724H67.8716V0.456932H65.0656V6.72392C64.2237 5.43775 62.8439 4.80627 60.9267 4.80627C57.3721 4.80627 54.9402 7.51881 54.9402 11.0262ZM65.0888 11.0262C65.0888 13.1077 63.7093 14.3705 61.3942 14.3705C59.0793 14.3705 57.7697 13.1543 57.7697 11.0262C57.7697 8.94518 59.0793 7.72923 61.3942 7.72923C63.7093 7.72923 65.0888 8.94518 65.0888 11.0262ZM82.1815 10.8158C82.1815 7.49561 79.6326 4.80627 75.7275 4.80627C71.7756 4.80627 68.9928 7.51881 68.9928 11.0262C68.9928 14.3937 71.5183 17.2466 75.8913 17.2466C79.3753 17.2466 81.971 15.4694 82.1113 12.8737H79.3051C79.1183 13.7156 77.6917 14.2532 75.8443 14.2532C73.693 14.2532 72.2435 13.4115 71.8456 11.8915H82.1815V10.8158ZM71.8692 9.99751C72.2666 8.59454 73.5994 7.79944 75.6339 7.79944C77.9487 7.79944 79.3519 8.66454 79.4219 9.99751H71.8692ZM82.531 13.2245C82.531 15.6798 84.7527 17.2466 87.5118 17.2466C89.6633 17.2466 91.6508 16.3579 92.5161 15.0249V16.8724H95.2988V9.99751C95.2988 5.95222 93.3346 4.80627 89.4059 4.80627C85.1034 4.80627 82.9989 6.27945 82.9989 9.27262H85.7814C85.7814 8.15008 86.6468 7.56561 89.2891 7.56561C91.6508 7.56561 92.5161 8.10348 92.5161 9.24922L87.3248 9.9039C84.3319 10.2782 82.6246 10.8158 82.531 13.2245ZM92.5161 12.3126C91.7678 13.5517 89.9203 14.6041 87.6757 14.6041C86.3661 14.6041 85.6412 14.183 85.6412 13.4115C85.6412 12.8503 86.1087 12.4994 87.0208 12.336L92.5161 11.4941V12.3126Z" fill="#37323C"/>
</svg>
