<svg width="36" height="36" xmlns="http://www.w3.org/2000/svg">

 <g>
  <title>background</title>
  <rect fill="none" id="canvas_background" height="38" width="38" y="-1" x="-1"/>
 </g>
 <g>
  <title>Layer 1</title>
  <path stroke="current" id="svg_1" fill="current" d="m17.041567,9.774013c0.527721,-0.538141 1.389131,-0.538141 1.916852,0l7.27846,6.935667c0.842731,0.859395 0.239616,2.318432 -0.958464,2.318432l-0.374718,0l0,5.553777c0,1.130921 -0.927302,2.047705 -2.071111,2.047705l-2.914897,0l0,-3.456648c0,-0.54451 -0.429276,-0.985896 -0.958848,-0.985896l-1.917696,0c-0.529562,0 -0.958848,0.441385 -0.958848,0.985896l0,3.456648l-2.914897,0c-1.143838,0 -2.071111,-0.916784 -2.071111,-2.047705l0,-5.553777l-0.374746,0c-1.198023,0 -1.801167,-1.459017 -0.958416,-2.318432l7.278441,-6.935667z" opacity="0.8"/>
 </g>
</svg>