<svg width="36" height="36" viewBox="0 0 36 36" fill="none" xmlns="http://www.w3.org/2000/svg">
<g opacity="0.8">
<path fill-rule="evenodd" clip-rule="evenodd" d="M10 8C8.89543 8 8 8.89543 8 10V24C8 26.2091 9.79086 28 12 28H24C26.2091 28 28 26.2091 28 24V12C28 9.79086 26.2091 8 24 8H10ZM24 18.0067C24 18.4801 23.6162 18.8638 23.1429 18.8638H18.8555L18.8555 23.1429C18.8555 23.6162 18.4717 24 17.9983 24C17.5249 24 17.1412 23.6162 17.1412 23.1429L17.1412 18.8638H12.8571C12.3838 18.8638 12 18.4801 12 18.0067C12 17.5333 12.3838 17.1496 12.8571 17.1496H17.1412V12.8571C17.1412 12.3838 17.5249 12 17.9983 12C18.4717 12 18.8555 12.3838 18.8555 12.8571V17.1496H23.1429C23.6162 17.1496 24 17.5333 24 18.0067Z" fill="#2D3134"/>
</g>
</svg>
