<svg width="36" height="36" viewBox="0 0 36 36" fill="none" xmlns="http://www.w3.org/2000/svg">
<path d="M17.518 17.1897C17.8749 17.3681 18.3031 17.2252 18.4815 16.8684C18.6599 16.5116 18.5171 16.0833 18.1602 15.9049L13.8783 13.764C13.5215 13.5856 13.0932 13.7284 12.9148 14.0852C12.7364 14.4421 12.8793 14.8703 13.2361 15.0487L17.518 17.1897Z" fill="#2D3134"/>
<path d="M22.7634 14.7275C22.585 15.0843 22.1568 15.2272 21.7999 15.0487L17.518 12.9078C17.1612 12.7294 17.0183 12.3011 17.1967 11.9443C17.3752 11.5875 17.8034 11.4446 18.1602 11.623L22.4421 13.764C22.799 13.9424 22.9418 14.3706 22.7634 14.7275Z" fill="#2D3134"/>
<path fill-rule="evenodd" clip-rule="evenodd" d="M29.6145 17.2611C29.6145 16.9764 29.5438 16.7074 29.4131 16.4726C29.2657 16.207 29.042 15.9854 28.758 15.8338L28.0088 15.477L28.758 15.1202C29.2933 14.8344 29.6145 14.2992 29.6145 13.6929C29.6145 13.0862 29.2933 12.551 28.758 12.2656L20.9434 8.37604C19.9088 7.8408 18.624 7.8408 17.5895 8.37604L6.95613 13.6929C6.42089 13.9783 6.09961 14.5135 6.09961 15.1202C6.09961 15.7265 6.42089 16.2617 6.95613 16.5475L7.70532 16.9043L6.95613 17.2611C6.42089 17.5465 6.09961 18.0818 6.09961 18.6884C6.09961 19.2948 6.42089 19.83 6.95613 20.1157L7.70532 20.4726L6.95613 20.8294C6.42089 21.1148 6.09961 21.65 6.09961 22.2567C6.09961 22.863 6.42089 23.3983 6.95613 23.684L14.7704 27.5732C15.8053 28.1084 17.0898 28.1084 18.1247 27.5732L28.7225 22.2567C29.0152 22.1002 29.2438 21.8695 29.3908 21.5932C29.5128 21.3643 29.5787 21.104 29.5787 20.8294C29.5787 20.2227 29.2577 19.6875 28.7225 19.4021L27.9729 19.0453L28.7225 18.6884C29.2933 18.4027 29.6145 17.8675 29.6145 17.2611ZM7.56245 15.2627C7.52343 15.2366 7.49869 15.201 7.48823 15.163C7.46976 15.0968 7.4945 15.0226 7.56245 14.9773L18.2317 9.66047C18.8739 9.33954 19.659 9.33954 20.3012 9.66047L28.0799 13.55C28.1872 13.6214 28.1872 13.764 28.0799 13.8354L17.4466 19.1522C16.8044 19.4732 16.0193 19.4732 15.3771 19.1522L7.56245 15.2627ZM28.1158 20.9719L17.4466 26.2887C16.8044 26.6097 16.0193 26.6097 15.3771 26.2887L7.56245 22.3992C7.50356 22.3598 7.47708 22.2992 7.48301 22.2407C7.48788 22.1926 7.51437 22.1459 7.56245 22.1138L9.2755 21.2573L14.7349 24.0049C15.7694 24.5402 17.0542 24.5402 18.0888 24.0049L26.4031 19.83L28.1158 20.6865C28.2228 20.758 28.2228 20.9005 28.1158 20.9719ZM28.1158 17.4037L17.4466 22.7205C17.2494 22.8191 17.0389 22.8874 16.8232 22.9254C16.4214 22.9961 16.0019 22.962 15.6175 22.8233C15.5356 22.7937 15.4551 22.7595 15.3771 22.7205L7.56245 18.831C7.51088 18.7965 7.48405 18.7452 7.48231 18.6937C7.48057 18.6383 7.50705 18.5825 7.56245 18.5456L9.2755 17.689L14.7349 20.4367C15.7694 20.9719 17.0542 20.9719 18.0888 20.4367L26.4031 16.2617L28.1158 17.1183C28.2228 17.1897 28.2228 17.3322 28.1158 17.4037Z" fill="#2D3134"/>
</svg>
